<?xml version="1.0" encoding="utf-8"?>
<!-- Generator: Adobe Illustrator 16.0.0, SVG Export Plug-In . SVG Version: 6.00 Build 0)  -->
<!DOCTYPE svg PUBLIC "-//W3C//DTD SVG 1.1//EN" "http://www.w3.org/Graphics/SVG/1.1/DTD/svg11.dtd">
<svg version="1.1" id="Layer_1" xmlns="http://www.w3.org/2000/svg" xmlns:xlink="http://www.w3.org/1999/xlink" x="0px" y="0px"
	 width="230.104px" height="887.627px" viewBox="0 0 230.104 887.627" enable-background="new 0 0 230.104 887.627"
	 xml:space="preserve">
<g>
	<g>
		<path fill="#DBA052" d="M177.557,307.463l5.443-1.354L177.557,307.463z"/>
		<path fill="#DBA052" d="M125.115,424.259l0.188-0.054L125.115,424.259z"/>
		<path fill="#F3BA67" d="M59.719,887.627c-17.695-1.877-48.749-15.314-48.749-15.314s31.484,5.356,47.979,2.053
			c-14.904,0.678-30.479-1.681-44.944-5.201c-0.104-1.061,1.055-0.555,2.604-0.162c15.032,3.797,61.064-9.827,61.064-9.827
			c-0.001-0.007-40.377,0.445-59.635-2.901c19.025,1.013,59.456-3.573,72.706-18.58c-25.451,6.52-48.783,9.541-73.76,0.125
			c21.956,6.591,43.508-2.145,63.356-11.1c-17.559,3.684-45.935,12.729-61.615-1.369c18.646,6.209,41.737-2.138,58.191-10.969
			c-21.521,7.338-36.834,4.738-57.775-3.021c27.428,5.884,67.144-9.525,88.36-26.092C77.53,797.3,48.358,806.51,18.271,789.593
			c21.479,9.665,48.834,7.396,68.352-5.842c-21.978,3.212-50.241,7.025-66.063-12.781c16.378,7.288,38.204,14.854,55.117,5.154
			c-15.964-1.202-51.233-3.023-58.095-20.757c37.771,13.409,107.672-3.281,107.672-3.281c0-0.002-77.747,10.632-105.545-9.124
			c25.802,2.277,56.874,5.104,81.128-6.781c-27.289,3.49-53.76,3.315-80.92-0.994c15.589-1.668,31.204-3.099,46.774-4.899
			c-16.789-1.779-33.515-4.082-50.271-6.098c28.274-1.354,56.476-2.863,84.716-4.898c-27.604,0.287-56.819-1.28-82.563-12.188
			c31.017,8.741,63.662,4.609,94.944-0.325c-33.885,2.104-65.873-2.365-98.729-10.716c29.172,4.825,59.184,7.863,84.424-10.691
			c-25.769,5.431-49.361,3.161-74.488-4.569c36.034,3.271,68.499-7.5,103.104-16.229c-31.613,4.97-66.099,10.155-97.038-0.701
			c36.903,2.15,71.257-6.269,106.104-18.229c-31.948,3.283-83.968,18.357-114.202-0.856c23.417,2.55,44.23,5.667,67.231-1.031
			c-23.008-0.874-47.406-2.707-67.038-16.069c33.068,9.374,67.027,6.423,100.528,1.351c-32.104,0.826-67.701,1.425-95.979-16.575
			c43.859,7.563,81.933,2.188,125.603-4.767c-40.529,2.827-82.117,6.438-120.771-8.776c41.021,3.551,81-2.3,120.275-14.564
			c-41.991,7.104-80.538,7.575-121.826-2.495c34.684,2.743,67.757,1.26,100.962-9.842c-26.694,2.028-79.25,9.438-102.401-11.854
			c37.25,6.111,74.358,6.61,108.021-12.977c-37.904,8.689-78.646,15.199-114.496-4.648c26.604,11.04,55.813,9.354,82.552,0.361
			c-29.74,3.667-58.896-5.27-84.436-20.695c48.604,13.353,90.521,18.215,139.662,5.658c0,0,0.029,0.116-7.996,0.854
			c-43.534,3.993-97.729,2.521-136.121-24.058c21.996,4.021,44.018,9.657,66.244,12.262c21.852,2.556,43.878-0.026,65.733-1.529
			c-22.295-0.009-44.397,0.868-66.298-3.782c-22.855-4.854-45.317-12.129-67.916-18.063c38.866,5.388,74.081,12.201,113.356,7.948
			c-37.993,1.222-71.749-8.225-108.534-16.807c39.255,4.347,73.532,8.677,112.78,2.525c-22.69,1.978-43.162,1.413-65.541-3.298
			c-7.333-1.544-52.836-12.979-51.977-13.771c8.219-7.568,64.593,7.487,97.208,1.682c-30.983-0.007-62.933-13.632-92.43-21.78
			c39.507,9.492,72.418,12.813,111.182-1.412c-40.779,11.723-78.206,3.424-116.053-14.73c24.924,9.02,58.028,16.696,83.938,9.386
			c-24.988,2.563-55.432-8.021-79.223-15.131c1.566-0.056,3.608,0.375,5.176,0.631c34.596,5.643,100.995-4.517,100.995-4.517
			c0-0.001-65.354-0.479-98.449-7.925c35.394,6.028,88.84,10.102,117.801-17.15c-17.275,5.346-35.697,12.418-53.955,13.046
			c-22.387,0.77-45.521-7.649-66.309-14.833c37.384,10.604,65.174,9.896,100.258-6.471c-31.283,8.81-68.4,12.733-97.575-5.829
			c31.202,9.602,60.956,9.146,89.83-6.047c-32.534,11.639-57.462,2.21-89.74-8.154c45.91,11.414,93.389-0.441,131.89-27.39
			c-20.694,8.107-43.697,19.492-66.167,21.256c-23.047,1.809-47.267-8.035-68.217-16.228c33.703,12.21,69.235,17.256,100.731-2.683
			c-32.229,6.935-71.073,6.777-97.938-16.043c22.738,8.045,57.954,23.22,80.788,9.557c-21.186,0.53-75.176-5.513-85.992-25.743
			c21.371,6.411,44.384,13.713,66.985,13.162c29.494-0.719,88.502-19.319,88.502-19.319c0-0.001-106.146,18.584-152.771-6.277
			c37.023,4.224,76.771,10.02,111.896-6.39c-38.338,6.881-73.576,4.405-111.851-1.49c22.397-0.563,44.947-0.228,67.273-2.345
			c-24.206-2.6-48.322-6.017-72.486-8.962c38.786,0.056,76.134,0.154,114.688-4.615c-37.466,3.162-76.204-0.521-112.021-12.526
			c43.745,10.016,85.026,6.544,128.531-1.671c-46.063,5.604-88.313-0.008-133.688-9.518c39.19,5.68,75.979,10.73,111.063-10.808
			c-33.524,7.419-64.369,3.806-97.677-4.264c49.162,4.406,91.2-8.015,138.646-19.464c-43.672,7.766-86.442,14.14-130.111,2.674
			c50.148,2.638,94.542-7.483,142.622-22.43c-45.843,6.188-108.646,24.343-153.913,3.168c30.622,2.541,58.37,6.43,88.383-1.191
			c-29.041,0.783-61.657-3.179-87.926-16.035c45.375,9.187,88.631,6.051,133.83-1.505c-42.927,3.227-86.688,3.58-127.025-13.976
			c24.515,2.673,49.713,6.334,74.426,4.551c30.319-2.188,60.614-8.88,90.563-13.821c-53.771,5.137-104.759,8.538-157.463-4.682
			c52.604,2.008,103.076-3.63,153.72-18.396c-53.129,8.893-102.382,7.976-155.467,0.979c44.203,0.881,86.969-0.088,129.521-13.023
			c-36.703,2.742-72.39,2.836-108.796-3.126c-7.398-1.212-15.697-2.011-22.197-5.972c44.911,2.838,95.102,6.627,136.188-16.246
			c-47.11,9.557-98.792,13.89-145.529-1.222c36.497,8.383,77.221,6.933,112.944-4.288c-36.297,5.721-80.928-4.181-115.368-16.155
			c64.88,7.533,97.313,11.358,162.004,1.363c0,0-26.47,1.606-51.701-0.907c-36.692-3.655-82.396-3.368-116.667-17.74
			c62.688,2.828,104.725,0.984,167.368,2.646c-63.471-6.511-106.92-7.903-170.51-13.622c57.547,1.069,96.506,2.579,154.01,0.122
			c-55.132-1.717-91.786-6.138-146.862-9.496c48.316-0.295,96.965,1.302,145.161-2.774c-21.299-0.285-42.424-2.664-63.677-3.931
			c-24.786-1.479-49.646-2.385-74.385-4.563c-4.06-0.354-17.016-1.551-14.04-2.818c32.303-6.418,162.389-4.51,207.803-9.418
			C173.552,13.813,51.002,8.927,0,0c0,294.75,0.01,592.876,0,887.627C19.92,887.428,39.796,887.67,59.719,887.627z"/>
		<path fill="#DBA052" d="M77.675,859.17l0.109-0.021L77.675,859.17z"/>
		<path fill="#DBA052" d="M125.251,752.084l3.763-0.835L125.251,752.084z"/>
	</g>
</g>
</svg>
